<svg width="106" height="32" viewBox="0 0 106 32" fill="none" xmlns="http://www.w3.org/2000/svg">
<path d="M29.2034 20.6665C27.2816 26.1042 22.0957 30 16 30C9.90426 30 4.71844 26.1042 2.79658 20.6665H5.30396C7.10426 24.787 11.2158 27.6665 15.9999 27.6665C20.7839 27.6665 24.8955 24.787 26.6958 20.6665H29.2034Z" fill="black"/>
<path d="M29.8065 18.3332C29.9337 17.5744 30 16.7949 30 16C30 8.26801 23.732 2 16 2C8.26801 2 2 8.26801 2 16C2 16.7949 2.06626 17.5744 2.19355 18.3332H4.56657C4.41353 17.5793 4.33319 16.7989 4.33319 15.9999C4.33319 9.55654 9.55654 4.33319 15.9999 4.33319C22.4432 4.33319 27.6665 9.55654 27.6665 15.9999C27.6665 16.7989 27.5862 17.5793 27.4331 18.3332H29.8065Z" fill="black"/>
<path d="M22.5996 9.40034C23.1693 9.96999 23.6499 10.595 24.0415 11.258L11.258 24.0415C10.595 23.6499 9.96998 23.1693 9.40032 22.5997C8.83059 22.0299 8.34991 21.4049 7.95828 20.7418L20.7417 7.9583C21.4048 8.34992 22.0299 8.8306 22.5996 9.40034Z" fill="black"/>
<path d="M18.4168 6.9834C15.3031 6.15191 11.8431 6.95755 9.40032 9.40034C6.95754 11.8431 6.15189 15.3031 6.98338 18.4168L18.4168 6.9834Z" fill="black"/>
<path d="M22.5996 22.5997C20.1568 25.0425 16.6966 25.8482 13.5828 25.0165L25.0165 13.5828C25.8481 16.6967 25.0425 20.1568 22.5996 22.5997Z" fill="black"/>
<path d="M93.25 17.3052C93.25 15.9517 93.5078 14.7755 94.0234 13.7765C94.539 12.7614 95.2722 11.9799 96.2228 11.4321C97.1735 10.8843 98.2772 10.6104 99.534 10.6104C100.646 10.6104 101.645 10.8601 102.531 11.3596C103.417 11.8591 104.126 12.6164 104.658 13.6315C105.19 14.6305 105.472 15.8631 105.504 17.3293V18.1269H96.392C96.4564 19.2226 96.7626 20.0765 97.3104 20.6888C97.8583 21.285 98.5994 21.5831 99.534 21.5831C100.13 21.5831 100.67 21.43 101.153 21.1238C101.653 20.8016 102.023 20.3585 102.265 19.7946L105.335 20.0121C104.948 21.2366 104.223 22.2115 103.159 22.9365C102.112 23.6455 100.904 24 99.534 24C98.2772 24 97.1735 23.726 96.2228 23.1782C95.2722 22.6304 94.539 21.8489 94.0234 20.8338C93.5078 19.8187 93.25 18.6425 93.25 17.3052ZM102.41 16.0725C102.281 15.0252 101.951 14.2518 101.419 13.7523C100.904 13.2528 100.275 13.0031 99.534 13.0031C98.6639 13.0031 97.963 13.277 97.4313 13.8248C96.8995 14.3565 96.5612 15.1058 96.4162 16.0725H102.41Z" fill="black"/>
<path d="M79.3311 17.3052C79.3311 15.9517 79.5889 14.7755 80.1045 13.7765C80.6201 12.7614 81.3532 11.9799 82.3039 11.4321C83.2545 10.8843 84.3582 10.6104 85.615 10.6104C86.7268 10.6104 87.7258 10.8601 88.612 11.3596C89.4982 11.8591 90.2072 12.6164 90.7389 13.6315C91.2706 14.6305 91.5526 15.8631 91.5848 17.3293V18.1269H82.4731C82.5375 19.2226 82.8436 20.0765 83.3915 20.6888C83.9393 21.285 84.6805 21.5831 85.615 21.5831C86.2112 21.5831 86.751 21.43 87.2344 21.1238C87.7339 20.8016 88.1045 20.3585 88.3462 19.7946L91.4156 20.0121C91.0289 21.2366 90.3039 22.2115 89.2404 22.9365C88.1931 23.6455 86.9846 24 85.615 24C84.3582 24 83.2545 23.726 82.3039 23.1782C81.3532 22.6304 80.6201 21.8489 80.1045 20.8338C79.5889 19.8187 79.3311 18.6425 79.3311 17.3052ZM88.4912 16.0725C88.3623 15.0252 88.032 14.2518 87.5002 13.7523C86.9846 13.2528 86.3562 13.0031 85.615 13.0031C84.745 13.0031 84.044 13.277 83.5123 13.8248C82.9806 14.3565 82.6422 15.1058 82.4972 16.0725H88.4912Z" fill="black"/>
<path d="M74.9745 8V19.8186C74.9745 20.3181 75.0954 20.6968 75.3371 20.9546C75.5949 21.2124 75.9574 21.3413 76.4247 21.3413H78.3582V23.7098H75.9655C74.6603 23.7098 73.6694 23.3795 72.9926 22.7189C72.3159 22.0583 71.9775 21.0915 71.9775 19.8186V8H74.9745ZM78.3582 10.9003V13.2447H71.9775V10.9003H78.3582Z" fill="black"/>
<path d="M66.4185 23.7099L66.3459 20.2296L66.7327 20.4471C66.5232 21.6717 66.0479 22.574 65.3067 23.1541C64.5655 23.718 63.6632 24 62.5997 24C61.2301 24 60.1667 23.5569 59.4094 22.6707C58.6521 21.7845 58.2734 20.6083 58.2734 19.142V10.9004H61.2704V18.1752C61.2704 18.9487 61.3429 19.577 61.4879 20.0604C61.6491 20.5438 61.8827 20.9144 62.1888 21.1722C62.5111 21.4139 62.9461 21.5347 63.494 21.5347C64.3318 21.5347 64.9925 21.2528 65.4759 20.6888C65.9592 20.1088 66.2009 19.2709 66.2009 18.1752V10.9004H69.1979V23.7099H66.4185Z" fill="black"/>
<path d="M51.8109 10.9004L51.9076 14.4774L51.6901 14.3324C51.8512 13.1562 52.1896 12.2941 52.7052 11.7463C53.2369 11.1824 53.9781 10.9004 54.9288 10.9004H56.1372V13.2448H54.9288C54.252 13.2448 53.6961 13.3656 53.2611 13.6073C52.8261 13.8329 52.5038 14.1793 52.2943 14.6466C52.101 15.0977 52.0043 15.6697 52.0043 16.3626V23.7099H49.0073V10.9004H51.8109Z" fill="black"/>
<path d="M42.997 8V19.8186C42.997 20.3181 43.1178 20.6968 43.3595 20.9546C43.6173 21.2124 43.9799 21.3413 44.4471 21.3413H46.3807V23.7098H43.9879C42.6828 23.7098 41.6918 23.3795 41.0151 22.7189C40.3384 22.0583 40 21.0915 40 19.8186V8H42.997ZM46.3807 10.9003V13.2447H40V10.9003H46.3807Z" fill="black"/>
</svg>
